<svg xmlns="http://www.w3.org/2000/svg" viewBox="0 0 401 350.5"><defs><style>.cls-1{fill:none;}.cls-1,.cls-2{stroke:#1d1d1b;stroke-miterlimit:10;}</style></defs><title>logo_monocolor_1</title><g id="Слой_2" data-name="Слой 2"><g id="Слой_1-2" data-name="Слой 1"><path class="cls-1" d="M350.5,50.5h-150v200h-100a50.15,50.15,0,0,0,50,50h150c41.52,0,65.8,8.62,80,18.7,20,14.2,20,31.3,20,31.3v-250A50.15,50.15,0,0,0,350.5,50.5Z"/><path class="cls-2" d="M50.5,100.5v-50h150a50.15,50.15,0,0,0-50-50H50.5a50.15,50.15,0,0,0-50,50v250s0-17.1,20-31.3c14.2-10.08,38.48-18.7,80-18.7v-150Z"/><path class="cls-2" d="M150.5,250.5h50v-150h-50Z"/><polygon class="cls-2" points="150.5 250.5 150.5 100.5 200.5 100.5 250.5 150.5 300.5 100.5 350.5 100.5 350.5 250.5 300.5 250.5 300.5 170.5 270.5 200.5 230.5 200.5 200.5 170.5 200.5 250.5 150.5 250.5"/></g></g></svg>